HIERARCHY
ROOT Hips
{
	OFFSET 0.00000 0.00000 0.00000
	CHANNELS 6 Xposition Yposition Zposition Yrotation Zrotation Xrotation 
	JOINT Lumbar
	{
		OFFSET 0 0 0
		CHANNELS 3 Zrotation Xrotation Yrotation
		JOINT Neck
		{
			OFFSET 0.00 0.2701 0.00
			CHANNELS 3 Zrotation Xrotation Yrotation
			End Site
			{
				OFFSET 0.00 0.1379 0.00
			}
		}
		JOINT RightShoulder
		{
			OFFSET 0.0119 0.2289 0.1181
			CHANNELS 3 Zrotation Xrotation Yrotation
			JOINT RightElbow
			{
				OFFSET 0.00 -0.1475 0.00
				CHANNELS 2 Zrotation Yrotation
				JOINT RightWrist
				{
					OFFSET 0.00 -0.1605 0.00
					CHANNELS 2 Zrotation Xrotation
					End Site
					{
						OFFSET 0.0040 -0.1068 0.0006
					}
				}
			}
		}
		JOINT LeftShoulder
		{
			OFFSET 0.0119 0.2289 -0.1181
			CHANNELS 3 Zrotation Xrotation Yrotation
			JOINT LeftElbow
			{
				OFFSET 0.00 -0.1475 0.00
				CHANNELS 2 Zrotation Yrotation
				JOINT LeftWrist
				{
					OFFSET 0.00 -0.1605 0.00
					CHANNELS 2 Zrotation Xrotation
					End Site
					{
						OFFSET 0.0040 -0.1068 -0.0006
					}
				}
			}
		}
	}
	JOINT RightHip
	{
		OFFSET 0.0316 -0.0424 0.0458
		CHANNELS 3 Zrotation Xrotation Yrotation
		JOINT RightKnee
		{
			OFFSET 0.00 -0.2438 0.00
			CHANNELS 1 Zrotation
			JOINT RightAnkle
			{
				OFFSET 0.00 -0.2449 0.00
				CHANNELS 3 Zrotation Xrotation Yrotation
				End Site
				{
					OFFSET 0.1237 -0.0542 0.0051
				}
			}
		}
	}
	JOINT LeftHip
	{
		OFFSET 0.0316 -0.0424 -0.0458
		CHANNELS 3 Zrotation Xrotation Yrotation
		JOINT LeftKnee
		{
			OFFSET 0.00 -0.2438 0.00
			CHANNELS 1 Zrotation
			JOINT LeftAnkle
			{
				OFFSET 0.00 -0.2449 0.00
				CHANNELS 3 Zrotation Xrotation Yrotation
				End Site
				{
					OFFSET 0.1237 -0.0542 -0.0051
				}
			}
		}
	}
}
MOTION
Frames: 33
Frame Time: 0.02
-0.07869 0.56502 -0.11225 103.75665 0 -4.99935 -19.30306 -4.6476 1.67318 -17.91138 0.48012 0.89473 -62.98655 -164.76444 -43.67834 96.02077 75.68206 -57.09719 -3.2971 -64.36988 170.75666 19.27218 72.15777 -37.50182 -22.51207 -6.18786 3.90162 6.70099 -0.79078 -25.41984 12.17868 -4.0871 -2.1519 22.15463 12.91199 8.41882 -21.5361 -5.14041 1.30924 -4.84903
-0.07718 0.56528 -0.11103 103.59703 0 -4.97475 -18.77702 -4.41594 2.01423 -17.97371 0.44918 1.22947 -62.96746 -164.73188 -43.38247 93.98582 74.33619 -56.26657 -3.22859 -64.42374 171.23514 19.78412 75.22765 -39.56849 -19.95187 -5.60218 4.00052 6.72352 -0.82741 -25.29488 12.08682 -3.82885 -1.83192 22.33816 13.09349 7.22178 -22.00253 -4.51136 1.23224 -4.89839
-0.07611 0.56547 -0.10993 103.42264 0 -4.9597 -18.44135 -4.19657 2.52018 -17.816 0.25898 1.67197 -63.01511 -165.00111 -42.45173 91.65309 72.45262 -54.66819 -3.00855 -64.39131 170.94627 21.82287 80.02519 -42.43609 -19.39218 -4.47547 4.09783 6.70642 -0.87138 -25.21166 12.02933 -3.5416 -1.45844 22.50743 13.2057 5.79081 -22.58839 -3.60134 1.22151 -4.55443
-0.07485 0.56569 -0.10878 103.2645 0 -4.93951 -18.03309 -3.97726 2.94831 -17.75485 0.14076 2.05868 -63.03764 -165.15309 -41.77017 89.48899 70.83082 -53.33397 -2.83889 -64.40083 171.03146 23.14236 83.95648 -44.91035 -17.9716 -3.61547 4.19286 6.70643 -0.91241 -25.10907 11.95563 -3.27265 -1.11718 22.67812 13.34666 4.50751 -23.11265 -2.85174 1.1886 -4.37499
-0.07351 0.56591 -0.10758 103.06597 0 -4.92172 -17.57301 -3.73709 3.39215 -17.69926 0.02805 2.47773 -63.03778 -165.21939 -41.24701 87.15644 69.11213 -52.30931 -2.74012 -64.40322 171.05216 24.53789 88.2674 -47.54565 -16.24443 -2.67327 4.30115 6.70923 -0.94997 -25.00891 11.88389 -2.98311 -0.74319 22.87294 13.49956 3.04762 -23.67391 -1.96428 1.12204 -4.25894
-0.07246 0.56611 -0.10653 102.94985 0 -4.90212 -17.26477 -3.54188 3.83929 -17.58336 -0.1348 2.85157 -63.0996 -165.53244 -40.25526 85.12461 67.48501 -50.48601 -2.4647 -64.3972 170.99972 26.14737 92.1784 -50.015 -15.68266 -1.77288 4.37977 6.69748 -0.99787 -24.91183 11.81619 -2.72989 -0.42524 23.01213 13.61069 1.89957 -24.1821 -1.29561 1.1398 -3.92167
-0.07203 0.56623 -0.10584 103.04293 0 -4.86846 -17.31293 -3.47176 4.27711 -17.35336 -0.40475 3.10034 -63.32752 -166.5033 -38.01286 83.87268 66.13557 -46.52452 -1.68581 -64.40303 171.04988 27.9961 94.61968 -51.90424 -17.68695 -1.10537 4.39479 6.65148 -1.06382 -24.83157 11.75435 -2.57538 -0.26499 23.01236 13.62705 1.68469 -24.53942 -1.31813 1.39386 -3.00074
-0.07188 0.56633 -0.10532 103.22281 0 -4.83393 -17.50933 -3.44568 4.70818 -17.0717 -0.71874 3.29518 -63.61323 -167.70381 -35.3424 82.95769 64.91723 -41.81548 -0.74445 -64.4009 171.03165 30.00386 96.57904 -53.57677 -20.82821 -0.50119 4.37682 6.59286 -1.14136 -24.74977 11.69501 -2.45984 -0.16468 22.95461 13.60301 1.78948 -24.83391 -1.56706 1.72722 -1.88158
-0.07164 0.56644 -0.10475 103.3777 0 -4.80434 -17.64718 -3.39609 5.12783 -16.81594 -1.00838 3.49698 -63.86471 -168.76678 -32.93959 81.97337 63.71268 -37.53071 0.08753 -64.39202 170.95699 31.93457 98.72288 -55.30077 -23.58072 0.12426 4.36236 6.54276 -1.21986 -24.6565 11.63251 -2.33183 -0.04332 22.91608 13.59521 1.73856 -25.14044 -1.70083 2.01146 -0.89797
-0.07126 0.56654 -0.10407 103.47305 0 -4.75606 -17.75401 -3.36043 5.61471 -16.54237 -1.32234 3.77527 -64.15191 -169.97922 -30.20151 80.6301 62.18543 -32.85374 1.07456 -64.42146 171.20444 33.95561 101.09244 -57.26817 -25.90161 0.80351 4.39632 6.48009 -1.27365 -24.61551 11.57943 -2.1805 0.10614 22.9079 13.59429 1.72316 -25.52139 -1.87755 2.35266 0.28824
-0.07124 0.56666 -0.10367 103.71075 0 -4.74617 -17.95886 -3.30769 5.95747 -16.29622 -1.59338 3.88177 -64.37785 -170.93221 -28.07402 80.1115 61.3609 -28.83609 1.77568 -64.37346 170.80113 35.78455 102.83085 -58.64601 -29.31511 1.34442 4.32159 6.44039 -1.37989 -24.46541 11.50727 -2.08763 0.18201 22.82204 13.56991 1.71313 -25.73026 -2.02101 2.59391 1.09809
-0.07205 0.56687 -0.10397 104.34092 0 -4.84417 -18.39128 -3.18342 5.90584 -16.14192 -1.73992 3.51203 -64.41757 -171.10024 -27.69034 81.84752 62.51188 -26.74694 1.64352 -64.08636 168.38823 37.23014 103.14995 -58.63035 -35.89379 1.55364 3.95514 6.47355 -1.64262 -24.00848 11.37822 -2.14437 0.07053 22.54364 13.49443 1.63821 -25.48471 -2.02911 2.53377 0.7879
-0.07323 0.56711 -0.10456 105.10717 0 -4.98042 -18.91775 -3.0433 5.70829 -16.01716 -1.83982 2.97396 -64.3938 -170.99982 -27.94649 84.39029 64.35448 -25.36734 1.21865 -63.72679 165.3665 38.43749 102.81097 -57.99858 -43.44137 1.61735 3.48045 6.52906 -1.95494 -23.44283 11.23039 -2.25893 -0.11315 22.18804 13.39624 1.55944 -25.06746 -1.99507 2.37137 0.09676
-0.07429 0.56732 -0.10504 105.79819 0 -5.09807 -19.40431 -2.91879 5.57533 -15.87809 -1.95742 2.52175 -64.40075 -171.02914 -27.94551 86.52844 65.84077 -23.71326 0.92879 -63.41911 162.78129 39.62071 102.61992 -57.51596 -50.25854 1.72119 3.05507 6.57066 -2.23507 -22.93048 11.09331 -2.34894 -0.26517 21.86227 13.30651 1.4842 -24.72352 -1.97401 2.25908 -0.40155
-0.07515 0.56757 -0.10544 106.5504 0 -5.22103 -19.88318 -2.75876 5.44913 -15.74207 -2.09237 2.02648 -64.40212 -171.03487 -27.79289 88.84645 67.51379 -21.82088 0.63357 -63.03242 159.53013 41.35762 103.01984 -57.54699 -58.34971 1.92987 2.62789 6.62855 -2.55656 -22.40113 10.9469 -2.43393 -0.41552 21.55513 13.22379 1.41113 -24.3936 -1.98689 2.1332 -0.97832
-0.07651 0.56777 -0.10608 107.20428 0 -5.34178 -20.39975 -2.67035 5.27476 -15.60585 -2.17832 1.58378 -64.39898 -171.02187 -28.10651 90.96715 68.95394 -20.61464 0.28129 -62.79149 157.50775 41.89721 102.07806 -56.40438 -63.99186 1.89022 2.17939 6.65684 -2.80326 -21.88204 10.81552 -2.54145 -0.5843 21.1935 13.12084 1.33013 -23.99927 -1.91594 2.01158 -1.4817
-0.07909 0.56784 -0.10728 107.57037 0 -5.44947 -20.98562 -2.76655 4.99969 -15.47549 -2.14993 1.30973 -64.40123 -171.03092 -29.61376 92.42776 69.63396 -21.02833 -0.18712 -62.98593 159.15606 39.06015 97.25056 -51.82883 -62.72246 1.17038 1.6963 6.60812 -2.83335 -21.41127 10.72916 -2.7068 -0.79848 20.6843 12.97504 1.21317 -23.428 -1.62485 1.91504 -1.71788
-0.08218 0.56786 -0.10872 107.82912 0 -5.55336 -21.60779 -2.93836 4.68278 -15.34144 -2.07176 1.09844 -64.40049 -171.02797 -31.55676 93.64391 70.04265 -22.12452 -0.69789 -63.32682 162.03868 35.05098 91.15978 -46.1581 -58.9389 0.21394 1.19571 6.52719 -2.78584 -20.95507 10.65863 -2.89089 -1.02627 20.12615 12.80877 1.0897 -22.80563 -1.24955 1.82795 -1.86325
-0.08507 0.56791 -0.11007 108.12549 0 -5.65721 -22.2201 -3.0865 4.38602 -15.20066 -2.00991 0.86971 -64.3992 -171.02369 -33.2638 94.91776 70.54427 -22.98642 -1.17053 -63.59075 164.2719 31.65986 85.8761 -41.2151 -56.23462 -0.61722 0.70521 6.45419 -2.77265 -20.49745 10.58166 -3.05973 -1.2394 19.60123 12.64687 0.9773 -22.23412 -0.911 1.74398 -2.03179
-0.08782 0.56796 -0.11138 108.47406 0 -5.76911 -22.8071 -3.1889 4.07538 -15.09715 -1.9732 0.58636 -64.40344 -171.03772 -35.16088 96.44966 71.20965 -23.57803 -1.73369 -63.89595 166.85611 27.89362 79.59292 -35.28084 -53.80617 -1.53828 0.20341 6.40956 -2.76585 -20.01708 10.50132 -3.25875 -1.49035 19.02741 12.50387 0.83023 -21.54062 -0.5775 1.62579 -2.28779
-0.09098 0.56798 -0.11282 108.68628 0 -5.86375 -23.45504 -3.40483 3.7906 -14.91378 -1.87273 0.43629 -64.3967 -171.01562 -36.74747 97.37012 71.44628 -24.85318 -2.11372 -64.15109 169.0118 24.64154 75.09088 -31.15734 -50.22598 -2.31404 -0.27947 6.29878 -2.72583 -19.58522 10.43143 -3.39895 -1.66545 18.54457 12.31835 0.75446 -21.09041 -0.21406 1.5817 -2.33779
-0.09513 0.56793 -0.11456 108.55115 0 -5.90365 -24.25441 -3.91427 3.5451 -14.51912 -1.61059 0.61878 -64.35673 -170.88538 -37.45162 96.70582 70.69075 -28.12476 -1.98296 -64.2311 169.67261 23.02501 75.89657 -32.31422 -43.79405 -2.74418 -0.68944 6.00577 -2.62015 -19.31762 10.39114 -3.3698 -1.62384 18.32796 12.0084 0.87086 -21.3331 0.2116 1.74638 -1.81706
-0.09966 0.56786 -0.11643 108.28193 0 -5.92758 -25.11487 -4.53528 3.3354 -14.04262 -1.28624 0.93749 -64.30673 -170.72243 -37.80967 95.4245 69.4916 -32.00578 -1.66356 -64.25623 169.86444 21.97888 78.52352 -35.32611 -36.33904 -3.00411 -1.08232 5.6488 -2.48224 -19.0934 10.35976 -3.28166 -1.50718 18.20459 11.65876 1.06006 -21.82148 0.66404 1.98447 -1.09504
-0.10402 0.5678 -0.11824 108.07064 0 -5.96389 -25.95205 -5.10678 3.13823 -13.59783 -0.98858 1.20828 -64.26408 -170.58342 -38.2698 94.39007 68.40295 -35.42325 -1.42615 -64.30753 170.28038 20.72182 80.2714 -37.4914 -29.53436 -3.259 -1.49315 5.32558 -2.35407 -18.82654 10.32173 -3.22087 -1.4253 18.03675 11.33529 1.22048 -22.19285 1.10418 2.18533 -0.47871
-0.10842 0.56771 -0.12008 107.86565 0 -5.97856 -26.77151 -5.67758 2.81923 -13.17563 -0.69403 1.4235 -64.20973 -170.40629 -38.97945 93.48024 67.66768 -39.65238 -1.20795 -64.35871 170.69266 19.22778 82.20486 -39.65763 -21.8569 -3.84494 -1.86148 4.98051 -2.24354 -18.65339 10.29641 -3.15559 -1.33537 17.87537 10.97669 1.36388 -22.58571 1.54866 2.40326 0.20174
-0.11281 0.56769 -0.12188 107.6205 0 -6.03445 -27.64207 -6.27321 2.76142 -12.68754 -0.38113 1.78427 -64.17713 -170.30002 -39.08041 92.17859 66.12235 -42.32711 -0.90215 -64.39521 170.98517 18.36815 84.18438 -42.24609 -15.79078 -3.72938 -2.31425 4.66737 -2.09014 -18.29959 10.24506 -3.08905 -1.25138 17.72414 10.68217 1.55841 -22.99185 1.98829 2.60239 0.79379
-0.11717 0.56788 -0.12356 107.26776 0 -6.20868 -28.63669 -6.92824 3.42983 -12.03274 -0.0138 2.52883 -64.20973 -170.40628 -37.59308 89.8506 62.20649 -40.55456 -0.42062 -64.40398 171.05646 19.21225 85.99742 -45.8235 -14.39511 -1.44059 -3.00206 4.44767 -1.8227 -17.40007 10.13227 -3.00035 -1.13751 17.57187 10.57387 1.89041 -23.38405 2.41656 2.73662 1.10614
-0.1215 0.56814 -0.12518 106.88488 0 -6.42478 -29.68052 -7.60071 4.35683 -11.31531 0.366 3.41216 -64.26409 -170.58345 -35.5035 87.16913 57.53526 -37.19674 0.14522 -64.39924 171.01813 20.66378 87.77444 -49.7206 -14.66843 1.50162 -3.77547 4.26417 -1.51477 -16.32505 9.99065 -2.91741 -1.04214 17.42826 10.53165 2.26843 -23.77993 2.83688 2.84856 1.3201
-0.12579 0.56837 -0.12682 106.53617 0 -6.62136 -30.70343 -8.25283 5.15755 -10.62983 0.7275 4.22156 -64.30672 -170.7224 -33.67955 84.71238 53.37244 -34.56187 0.68752 -64.4004 171.02739 21.78343 89.4717 -53.28914 -14.21701 3.95865 -4.51149 4.07137 -1.22746 -15.35271 9.85376 -2.85483 -0.98324 17.28474 10.45951 2.61661 -24.16781 3.25492 2.96723 1.56913
-0.13033 0.5686 -0.12854 106.09787 0 -6.81964 -31.72374 -8.96105 5.99933 -9.92705 1.14482 5.08114 -64.35672 -170.88536 -31.86917 81.96094 48.50485 -31.92779 1.17945 -64.40082 171.03091 23.15874 91.6276 -57.67536 -13.61027 7.19977 -5.24182 3.84715 -0.92756 -14.28065 9.75212 -2.69766 -0.74071 17.1265 10.38532 3.0064 -24.58976 3.69926 3.10225 1.86394
-0.13432 0.56884 -0.13005 105.83877 0 -7.0243 -32.75866 -9.55549 6.81297 -9.24615 1.44769 5.86798 -64.39674 -171.01578 -29.90288 79.75054 44.92155 -28.92052 1.78699 -64.40019 171.02576 24.13749 92.80855 -60.43557 -13.70636 8.98127 -6.00296 3.69655 -0.64729 -13.37964 9.57063 -2.73405 -0.87542 17.00097 10.33187 3.31774 -24.93991 4.08603 3.19768 2.03992
-0.13687 0.56905 -0.13105 106.09971 0 -7.23853 -33.83552 -9.82726 7.51669 -8.64339 1.4344 6.41298 -64.40335 -171.03732 -27.55999 79.09896 45.16213 -25.15452 2.75195 -64.40055 171.02866 23.88175 91.19462 -58.40227 -15.61483 6.39589 -6.84155 3.75139 -0.40848 -12.94529 9.17082 -3.35219 -2.13998 16.95299 10.31787 3.41601 -25.07706 4.32011 3.18257 1.88897
-0.13885 0.56925 -0.13182 106.53909 0 -7.45748 -34.92219 -9.98413 8.17762 -8.0642 1.30513 6.87987 -64.3993 -171.02414 -25.09978 79.01213 46.70807 -21.08603 3.81892 -64.40045 171.0279 23.20258 88.61446 -54.7538 -18.13138 2.35187 -7.70564 3.87733 -0.19471 -12.69762 8.69244 -4.15648 -3.7673 16.93926 10.32319 3.43062 -25.14319 4.49557 3.12925 1.62509
